<svg width="131" height="35" viewBox="0 0 131 35" fill="none" xmlns="http://www.w3.org/2000/svg">
<path d="M20.5059 5.08452C20.5059 7.89303 18.2256 10.169 15.4117 10.169C12.5979 10.169 10.3175 7.89303 10.3175 5.08452C10.3175 2.27602 12.5979 0 15.4117 0C18.2256 0 20.5059 2.27602 20.5059 5.08452ZM1.29434 28.2348C-1.11013 31.1506 1.06093 33.4229 1.06093 33.4229C3.30979 35.514 5.48269 33.887 5.48269 33.887C5.48269 33.887 14.7134 25.3967 17.2994 23.0726C19.7557 20.4398 17.455 18.0658 17.2994 17.8846C17.1438 17.7034 5.74203 7.1738 5.74203 7.1738C5.74203 7.1738 3.23754 5.30639 0.827523 7.71738C-0.904504 9.78262 0.62005 12.0013 0.62005 12.0013L9.07456 20.4398L1.29434 28.2348ZM20.7894 19.9757C21.1765 23.3315 17.1178 26.0143 17.1178 26.0143L24.824 33.1881C27.0988 35.0203 29.4532 33.1881 29.4532 33.1881C32.2207 30.2464 29.4791 27.7689 29.4791 27.7689L21.7211 19.9498L29.6848 12.0531C31.9855 9.18912 29.6848 7.09799 29.6848 7.09799C27.5637 4.90518 25.2111 6.58214 25.2111 6.58214L16.6788 14.4012C20.8153 17.524 20.7894 19.9757 20.7894 19.9757ZM51.073 34.8022C52.9865 34.7504 53.6071 33.0993 53.6071 33.0993L61.6226 14.9818C61.6226 14.9818 62.3469 12.5042 60.0202 11.6778C57.6936 10.8513 56.5043 12.7612 56.5043 12.7612L50.9711 26.6466C50.9711 26.6466 46.5753 15.0335 45.4897 12.8648C44.4042 10.696 42.0257 11.6778 42.0257 11.6778C39.5138 13.009 40.7327 15.6012 40.7327 15.6012L48.4388 33.0993C48.4351 33.0993 49.1594 34.8539 51.073 34.8022ZM69.0175 24.9955C69.0175 24.9955 68.6304 28.7118 72.4816 29.7694C76.3328 30.827 78.9725 29.2018 79.7728 28.5048C80.573 27.8077 81.816 28.1183 81.816 28.1183C84.013 28.429 84.0389 30.9065 83.2646 31.8088C82.4884 32.7129 81.4807 33.3064 80.3692 33.8999C79.2578 34.4934 73.8524 35.7063 70.2068 34.4157C66.5612 33.1252 64.4402 30.4923 63.7677 25.4596C63.0953 20.4268 64.7754 16.8658 64.7754 16.8658C66.0166 14.0018 68.4729 12.556 68.4729 12.556C71.5757 10.7237 75.79 11.2137 75.79 11.2137C80.0562 11.5243 81.866 14.0518 81.866 14.0518C84.6076 16.7882 84.3223 20.9168 84.1667 22.8785C84.0111 24.8402 82.1754 24.9955 82.1754 24.9955H69.0175ZM69.1472 20.5045H78.8688C78.8169 16.9694 75.6881 15.0335 72.5594 16.0394C69.4306 17.047 69.1472 20.5045 69.1472 20.5045ZM89.6259 34.8354C92.0044 34.6543 92.0563 32.9514 92.0563 32.9514V20.9501C92.3415 17.4149 94.5904 17.4408 95.65 17.182C96.7096 16.9231 99.3734 17.6719 100.124 17.4926C100.874 17.3114 101.882 16.6403 101.882 15.0927C101.882 13.5452 100.615 13.131 100.615 13.131C97.6932 12.3045 95.9093 12.3563 95.9093 12.3563C92.8584 12.3045 91.0226 13.4398 91.0226 13.4398C86.912 15.3497 87.0658 20.7689 87.0658 20.7689V32.2285C87.0676 32.2285 87.2473 35.0166 89.6259 34.8354ZM109.089 32.4115V14.0703C109.089 12.6466 107.922 11.4818 106.496 11.4818H106.329C104.903 11.4818 103.736 12.6466 103.736 14.0703V32.4115C103.736 33.8352 104.903 35 106.329 35H106.496C107.922 35 109.089 33.8352 109.089 32.4115ZM109.712 5.99049V5.32488C109.712 3.69783 108.378 2.36661 106.748 2.36661H106.081C104.451 2.36661 103.117 3.69783 103.117 5.32488V5.99049C103.117 7.61754 104.451 8.94876 106.081 8.94876H106.748C108.378 8.94876 109.712 7.61754 109.712 5.99049ZM118.413 34.5452C118.413 34.5452 120.274 35.1646 122.757 34.9575C125.239 34.7504 128.134 33.7705 129.505 32.0417C130.876 30.313 131.341 28.3513 130.746 25.8479C130.152 23.3444 127.282 21.9503 126.454 21.5898C125.626 21.2293 122.292 20.1957 121.619 19.9646C118.724 19.1899 118.826 17.72 118.826 17.72C118.826 17.72 118.644 16.3001 121.334 15.9654C124.024 15.6307 126.143 17.6424 126.454 17.7977C126.765 17.953 127.955 18.7277 129.401 17.6424C130.163 17.0729 130.281 16.2409 130.222 15.5771C130.229 14.9836 129.85 14.3291 129.581 14.0388C128.868 13.2715 127.114 11.8053 123.79 11.3172C119.213 10.6461 116.344 11.9625 114.765 13.6653C113.189 15.3682 112.696 19.4469 114.326 21.5621C115.955 23.6791 119.161 24.7884 121.127 25.2784C123.092 25.7684 123.79 26.2084 124.333 26.4913C124.876 26.776 126.143 27.9112 125.006 29.2018C123.738 30.2076 121.127 30.08 119.68 29.7435C118.231 29.4089 117.016 28.5565 116.525 28.0924C116.034 27.6284 113.708 26.9054 112.724 28.6859C111.792 30.3888 113.396 31.8088 113.396 31.8088C115.541 33.7964 118.413 34.5452 118.413 34.5452ZM113.144 28.135L114.56 28.0148C114.56 28.0148 117.016 28.4789 116.362 27.9704C115.708 27.462 115.025 27.3695 115.025 27.3695C113.732 27.3695 113.144 28.135 113.144 28.135Z" fill="#003CC1"/>
</svg>
